<svg width="283" height="71" viewBox="0 0 283 71" fill="none" xmlns="http://www.w3.org/2000/svg">
<g clip-path="url(#clip0_30_692)">
<path d="M66.222 55.3625C65.0244 54.1649 63.4713 53.5588 61.6064 53.5588H22.1758C21.8206 53.5566 21.4693 53.4836 21.1425 53.3441C20.8158 53.2047 20.5201 53.0015 20.2727 52.7466C20.0253 52.4916 19.8312 52.1899 19.7017 51.859C19.5722 51.5282 19.5098 51.1749 19.5184 50.8197C19.5184 49.6134 20.2148 48.3226 22.1758 48.3226H54.3683C54.7906 49.2537 55.4685 50.046 56.3232 50.6072C57.1779 51.1684 58.1743 51.4755 59.1966 51.4929C60.6057 51.4913 61.9567 50.9309 62.9531 49.9344C63.9495 48.938 64.51 47.5871 64.5115 46.1779C64.5205 45.4776 64.3892 44.7826 64.1252 44.1338C63.8613 43.4851 63.4701 42.8958 62.9747 42.4007C62.4793 41.9056 61.8898 41.5147 61.2409 41.2511C60.592 40.9875 59.8969 40.8566 59.1966 40.866H59.182C58.1859 40.8874 57.2139 41.1772 56.3688 41.7049C55.5236 42.2326 54.8365 42.9787 54.38 43.8643H22.1758C21.2503 43.8255 20.3268 43.9786 19.4633 44.3139C18.5998 44.6492 17.815 45.1595 17.1582 45.8128C16.5014 46.466 15.9868 47.248 15.6468 48.1097C15.3068 48.9714 15.1487 49.894 15.1825 50.8197C15.1825 54.8613 18.1168 57.7926 22.1554 57.7926H61.685C63.0109 57.7926 63.8675 58.7746 63.8675 60.2927C63.8675 61.3621 63.2848 62.9502 61.685 62.9502H22.3477C21.8316 61.8696 20.9634 60.9965 19.8856 60.4744C18.8079 59.9522 17.5847 59.8119 16.4167 60.0765C15.2487 60.3411 14.2054 60.995 13.458 61.9307C12.7106 62.8664 12.3035 64.0284 12.3035 65.2259C12.3035 66.4235 12.7106 67.5855 13.458 68.5212C14.2054 69.4569 15.2487 70.1107 16.4167 70.3754C17.5847 70.64 18.8079 70.4997 19.8856 69.9775C20.9634 69.4553 21.8316 68.5823 22.3477 67.5017H61.6268C65.3915 67.5017 68.1247 64.4363 68.1247 60.217C68.1043 58.1948 67.4487 56.5076 66.222 55.3625ZM57.3288 46.1634C57.3288 45.8095 57.4337 45.4636 57.6303 45.1694C57.8269 44.8752 58.1063 44.6459 58.4333 44.5104C58.7602 44.375 59.1199 44.3396 59.467 44.4086C59.814 44.4777 60.1328 44.6481 60.383 44.8983C60.6332 45.1485 60.8036 45.4673 60.8727 45.8143C60.9417 46.1614 60.9063 46.5211 60.7709 46.848C60.6354 47.175 60.4061 47.4544 60.1119 47.651C59.8177 47.8476 59.4718 47.9525 59.1179 47.9525C58.6437 47.9517 58.189 47.763 57.8537 47.4276C57.5183 47.0923 57.3296 46.6376 57.3288 46.1634ZM15.7158 65.1881C15.7157 64.7161 15.9022 64.2632 16.2346 63.9281C16.567 63.593 17.0183 63.4028 17.4903 63.3989C17.9627 63.4099 18.413 63.6015 18.7485 63.9342C19.084 64.267 19.2792 64.7157 19.294 65.1881C19.294 65.6626 19.1055 66.1176 18.77 66.4532C18.4344 66.7887 17.9794 66.9772 17.5049 66.9772C17.0304 66.9772 16.5753 66.7887 16.2398 66.4532C15.9043 66.1176 15.7158 65.6626 15.7158 65.1881Z" fill="#003589"/>
<path d="M65.1177 15.3405H65.0361C63.9168 11.2544 61.54 7.62424 58.2425 4.96434C54.945 2.30444 50.894 0.749734 46.6636 0.520532C42.4332 0.291331 38.2379 1.39926 34.6723 3.68732C31.1067 5.97538 28.3516 9.32752 26.7974 13.2687C25.2008 12.8726 23.5411 12.8009 21.9163 13.0579C20.2916 13.3149 18.735 13.8953 17.3386 14.7648C15.9423 15.6343 14.7346 16.7751 13.7872 18.1198C12.8398 19.4645 12.1718 20.9856 11.823 22.5931C8.70211 23.0854 5.85903 24.6743 3.80444 27.0744C1.74985 29.4746 0.618378 32.5286 0.613281 35.6881C0.622896 38.9377 1.84366 42.067 4.03708 44.4647C6.19952 46.8617 9.1443 48.411 12.3445 48.8355H12.3795H12.5339C12.6388 48.8549 12.745 48.8666 12.8516 48.8704C13.4698 48.8851 14.0686 48.6536 14.5161 48.2268C14.9637 47.8 15.2233 47.213 15.238 46.5947C15.2527 45.9765 15.0212 45.3777 14.5944 44.9302C14.1676 44.4826 13.5805 44.2229 12.9623 44.2082L12.8778 44.1908H12.8516H12.8253C8.62644 43.608 5.40078 40.0414 5.3221 35.8891C5.29813 34.7534 5.50027 33.6243 5.91676 32.5674C6.33325 31.5105 6.95577 30.5471 7.74811 29.733C8.54044 28.919 9.48676 28.2707 10.532 27.8258C11.5772 27.3809 12.7005 27.1484 13.8364 27.1417H13.9151C14.521 27.142 15.1031 26.9064 15.5382 26.4849C15.9734 26.0633 16.2273 25.489 16.2462 24.8834C16.2905 23.7523 16.5877 22.6455 17.1159 21.6443C17.6442 20.6431 18.39 19.773 19.2987 19.098C20.2074 18.423 21.2559 17.9602 22.3669 17.7436C23.478 17.527 24.6235 17.5621 25.7192 17.8464C25.5153 20.5826 25.6697 25.6265 28.6914 30.2624C31.6286 34.7673 36.4743 37.7365 43.0947 39.0886C43.2499 39.1211 43.4081 39.1377 43.5667 39.1381C44.1555 39.1467 44.726 38.9341 45.1656 38.5423C45.6052 38.1506 45.8818 37.6081 45.9408 37.0223C45.9997 36.4364 45.8367 35.8498 45.484 35.3783C45.1313 34.9068 44.6145 34.5848 44.0359 34.4759C38.7064 33.389 34.8775 31.1162 32.6484 27.7186C29.5364 22.9748 30.4776 17.3452 30.5708 16.8382C31.4513 13.3909 33.492 10.3519 36.3498 8.23251C39.2077 6.11309 42.7082 5.0425 46.2627 5.20083C49.8171 5.35917 53.2086 6.73676 55.8667 9.10189C58.5248 11.467 60.2872 14.6754 60.8577 18.1873C60.9429 18.7396 61.2237 19.2429 61.6488 19.6056C62.074 19.9682 62.6154 20.166 63.1742 20.163C63.2794 20.1634 63.3846 20.1566 63.4889 20.1426C66.6101 19.7236 69.7717 20.5376 72.3026 22.4117C74.8335 24.2858 76.5343 27.0725 77.0439 30.1802C77.5536 33.2879 76.832 36.4719 75.0324 39.0563C73.2327 41.6406 70.4967 43.4218 67.4051 44.0218C66.8812 44.1207 66.408 44.3991 66.0672 44.8091C65.7263 45.2191 65.5389 45.7351 65.5373 46.2684C65.535 46.9011 65.7837 47.5088 66.2289 47.9584C66.6741 48.408 67.2795 48.6626 67.9121 48.6665C68.0657 48.6664 68.2189 48.6517 68.3696 48.6228C72.4551 47.8057 76.0914 45.5001 78.5728 42.1533C81.0543 38.8065 82.204 34.6573 81.7989 30.5106C81.3937 26.364 79.4626 22.5158 76.3802 19.7126C73.2979 16.9094 69.2841 15.3513 65.1177 15.3405Z" fill="#279DF4"/>
<path d="M113.978 28.0478C115.446 27.0571 117.283 26.5627 119.488 26.5647C121.935 26.5647 123.926 27.1688 125.461 28.3771C126.996 29.5854 128.084 31.2618 128.725 33.4064L134.261 31.8767C133.352 28.8255 131.491 26.1451 128.949 24.2277C126.424 22.3337 123.269 21.3867 119.485 21.3867C116.202 21.3867 113.385 22.1055 111.035 23.543C108.697 24.9816 106.828 27.0692 105.656 29.5514C104.395 32.1214 103.764 35.1014 103.764 38.4912C103.764 41.881 104.392 44.8609 105.647 47.4309C106.825 49.917 108.703 52.0059 111.049 53.4423C113.38 54.8798 116.197 55.5975 119.499 55.5956C123.285 55.5956 126.44 54.6496 128.964 52.7575C131.505 50.8389 133.367 48.1577 134.276 45.1057L128.739 43.5788C128.098 45.7059 127.01 47.3785 125.476 48.5965C123.941 49.8145 121.949 50.4225 119.499 50.4206C117.294 50.4206 115.455 49.9262 113.98 48.9374C112.477 47.9238 111.315 46.478 110.65 44.791C109.873 42.7885 109.497 40.6531 109.543 38.5057C109.51 36.3582 109.894 34.2247 110.673 32.2234C111.329 30.5306 112.481 29.0753 113.978 28.0478Z" fill="#279DF4"/>
<path d="M143.411 21.3867H137.915V54.9108H143.411V21.3867Z" fill="#279DF4"/>
<path d="M165.783 31.2618C163.944 30.1526 161.785 29.598 159.306 29.598C157.068 29.5516 154.86 30.1189 152.921 31.2385C151.087 32.3276 149.593 33.9082 148.609 35.8017C147.575 37.7442 147.059 40.0093 147.059 42.5968C147.012 44.9332 147.533 47.2461 148.577 49.3366C149.541 51.2402 151.022 52.833 152.852 53.9318C154.689 55.0429 156.841 55.5975 159.306 55.5956C161.771 55.5937 163.922 55.0429 165.76 53.9434C167.593 52.8476 169.082 51.2596 170.058 49.3599C171.119 47.2661 171.648 44.9435 171.599 42.5968C171.646 40.2592 171.121 37.9456 170.07 35.857C169.099 33.9546 167.614 32.3626 165.783 31.2618ZM164.187 48.2526C163.122 49.7115 161.495 50.4419 159.306 50.4439C157.194 50.4439 155.594 49.7329 154.507 48.3109C153.419 46.8889 152.875 44.9842 152.875 42.5968C152.848 41.2015 153.08 39.8134 153.56 38.5028C153.966 37.3899 154.702 36.4274 155.669 35.7434C156.619 35.0829 157.831 34.7527 159.306 34.7527C161.464 34.7527 163.083 35.4627 164.163 36.8827C165.243 38.3027 165.783 40.2074 165.783 42.5968C165.783 44.9085 165.251 46.7938 164.187 48.2526Z" fill="#279DF4"/>
<path d="M191.417 42.9377C191.452 44.1884 191.283 45.4364 190.916 46.6325C190.65 47.4882 190.194 48.2723 189.581 48.9257C189.062 49.4558 188.425 49.8553 187.722 50.0913C187.053 50.3202 186.351 50.4393 185.644 50.4439C184.335 50.4439 183.298 50.1622 182.532 49.5988C181.767 49.0492 181.164 48.3046 180.784 47.4426C180.398 46.5739 180.147 45.6511 180.041 44.7065C179.942 43.8552 179.889 42.9992 179.884 42.1422V30.2828H174.318V44.0333C174.318 44.6278 174.368 45.4 174.467 46.3499C174.582 47.3763 174.799 48.3886 175.116 49.3716C175.46 50.455 175.984 51.4727 176.667 52.3816C177.416 53.3678 178.385 54.1659 179.496 54.7127C180.681 55.3227 182.186 55.6267 184.01 55.6247C186.319 55.6247 188.262 55.1197 189.837 54.1095C190.667 53.5803 191.413 52.929 192.049 52.1776V54.9196H196.906V30.2828H191.417V42.9377Z" fill="#279DF4"/>
<path d="M217.711 31.4804C217.633 31.4192 217.554 31.3551 217.473 31.2968C215.884 30.1623 213.919 29.5961 211.578 29.598C209.431 29.5464 207.319 30.138 205.511 31.2968C203.781 32.442 202.403 34.0449 201.531 35.927C200.566 38.016 200.087 40.2963 200.129 42.5968C200.092 44.8853 200.567 47.1532 201.519 49.2346C202.375 51.1182 203.732 52.7308 205.441 53.8968C207.197 55.0579 209.266 55.6547 211.371 55.6073C213.776 55.6073 215.791 55.0371 217.417 53.8968C217.759 53.6549 218.086 53.3921 218.396 53.1101V54.9254H223.254V22.0627H217.717L217.711 31.4804ZM217.77 46.8161C217.414 47.9427 216.721 48.9332 215.785 49.6542C214.88 50.3341 213.69 50.6731 212.216 50.6712C210.788 50.6712 209.61 50.3137 208.681 49.5988C207.726 48.8473 207.008 47.8353 206.615 46.685C206.154 45.3701 205.927 43.9844 205.945 42.591C205.927 41.2013 206.158 39.8196 206.627 38.5116C207.038 37.3557 207.775 36.3437 208.748 35.5977C209.708 34.875 210.925 34.5137 212.4 34.5137C213.798 34.5137 214.938 34.8527 215.82 35.5307C216.737 36.258 217.415 37.2421 217.77 38.3571C218.211 39.7231 218.423 41.1528 218.396 42.5881C218.424 44.0272 218.212 45.4609 217.77 46.8307V46.8161Z" fill="#279DF4"/>
<path d="M248.875 25.0262C246.994 23.4765 244.699 22.513 242.275 22.2551C241.492 22.1607 240.704 22.1072 239.915 22.0948C239.099 22.0948 238.557 22.0715 238.283 22.0715H227.813V54.9138H238.283C238.557 54.9138 239.105 54.9138 239.924 54.8905C240.71 54.8774 241.494 54.8239 242.275 54.7302C244.698 54.4697 246.992 53.5065 248.875 51.9591C250.7 50.4063 252.103 48.4178 252.954 46.178C253.903 43.7276 254.376 41.1187 254.347 38.4912C254.381 35.8645 253.914 33.2555 252.969 30.8044C252.114 28.5636 250.705 26.5758 248.875 25.0262ZM247.849 43.4185C247.435 44.8918 246.7 46.2551 245.696 47.4105C244.707 48.5136 243.37 49.2456 241.908 49.4852C241.287 49.5994 240.659 49.6675 240.028 49.6892C239.321 49.7203 238.739 49.7358 238.28 49.7358H233.402V27.2494H238.283C238.738 27.2494 239.32 27.2601 240.031 27.2815C240.663 27.2959 241.292 27.3691 241.911 27.5C243.352 27.7481 244.672 28.4651 245.664 29.5397C246.681 30.6715 247.426 32.0211 247.841 33.4851C248.777 36.734 248.777 40.1813 247.841 43.4302L247.849 43.4185Z" fill="#003589"/>
<path d="M280.555 40.0647C279.744 38.9531 278.632 38.0975 277.349 37.5995C278.14 37.1218 278.817 36.4762 279.331 35.7084C280.201 34.4477 280.636 32.9101 280.636 31.0958C280.632 29.6054 280.276 28.1369 279.599 26.8094C278.882 25.3986 277.784 24.2174 276.429 23.4002C275.005 22.5086 273.183 22.0627 270.962 22.0627H257.94V54.9138H272.285C274.443 54.9138 276.257 54.5029 277.725 53.6812C279.152 52.9025 280.309 51.7098 281.044 50.2603C281.819 48.6711 282.201 46.9196 282.16 45.1523C282.185 43.328 281.622 41.5442 280.555 40.0647ZM263.506 27.2028H270.895C272.202 27.2028 273.221 27.5826 273.952 28.3421C274.314 28.7215 274.598 29.1689 274.786 29.6586C274.974 30.1483 275.063 30.6705 275.047 31.1948C275.073 31.9611 274.883 32.7192 274.5 33.3831C274.146 33.966 273.631 34.4337 273.016 34.7294C272.353 35.041 271.628 35.1965 270.895 35.1839H263.506V27.2028ZM275.974 47.5125C275.544 48.2168 274.924 48.7854 274.185 49.153C273.385 49.5501 272.502 49.7499 271.609 49.7358H263.506V40.3153H271.761C272.675 40.2893 273.58 40.5065 274.383 40.9447C275.086 41.3341 275.664 41.9151 276.05 42.6201C276.441 43.3489 276.642 44.1649 276.633 44.992C276.654 45.8773 276.425 46.7506 275.974 47.5125Z" fill="#003589"/>
</g>
<defs>
<clipPath id="clip0_30_692">
<rect width="281.547" height="70" fill="white" transform="translate(0.613281 0.5)"/>
</clipPath>
</defs>
</svg>
