<svg width="69" height="35" viewBox="0 0 69 35" fill="none" xmlns="http://www.w3.org/2000/svg">
<path d="M20.7133 31.3386L19.1311 34.9592H18.4632L16.8906 31.3386H17.5721L18.8146 34.2417L20.0824 31.3386H20.7133Z" fill="#889499"/>
<path d="M23.5071 31.673C23.6457 31.8186 23.752 31.9919 23.8189 32.1816C23.8858 32.3713 23.9119 32.573 23.8954 32.7735V34.9591H23.2761V34.4808C23.1626 34.6545 22.9996 34.79 22.8082 34.8696C22.58 34.9641 22.3347 35.0098 22.0879 35.0038C21.7401 35.0219 21.3969 34.9181 21.1172 34.7102C20.9989 34.619 20.9041 34.5009 20.8407 34.3656C20.7772 34.2303 20.7468 34.0818 20.7522 33.9324C20.7457 33.7846 20.7738 33.6374 20.8341 33.5024C20.8944 33.3673 20.9854 33.2483 21.0997 33.1546C21.3301 32.9602 21.6983 32.863 22.2044 32.863H23.2411V32.7346C23.2493 32.615 23.2315 32.495 23.1889 32.3829C23.1464 32.2707 23.0801 32.1692 22.9946 32.0852C22.7909 31.9214 22.5329 31.8408 22.2724 31.8596C22.0588 31.8593 21.8467 31.8954 21.6453 31.9666C21.4565 32.0275 21.2807 32.1231 21.1269 32.2485L20.8532 31.7566C21.0525 31.6002 21.2798 31.4833 21.523 31.4124C21.7904 31.3311 22.0686 31.2904 22.3481 31.2919C22.7689 31.2652 23.1839 31.4016 23.5071 31.673ZM22.8548 34.3271C23.0329 34.2162 23.1694 34.0494 23.2431 33.8527V33.3471H22.2335C21.6783 33.3471 21.4026 33.5416 21.4026 33.9071C21.3996 33.9905 21.4171 34.0733 21.4537 34.1483C21.4903 34.2233 21.5447 34.288 21.6123 34.3369C21.7848 34.45 21.9888 34.5052 22.1947 34.4944C22.4261 34.5025 22.6551 34.4445 22.8548 34.3271Z" fill="#889499"/>
<path d="M27.9744 31.7042C28.1171 31.8612 28.2266 32.0455 28.2963 32.246C28.366 32.4465 28.3945 32.659 28.3802 32.8709V34.9553H27.7259V32.9506C27.7463 32.6635 27.656 32.3796 27.4735 32.1572C27.3779 32.0651 27.264 31.994 27.1393 31.9484C27.0146 31.9029 26.8818 31.884 26.7494 31.8928C26.5959 31.8844 26.4424 31.9075 26.2981 31.9606C26.1539 32.0138 26.0221 32.0959 25.9107 32.202C25.8026 32.3227 25.7198 32.4638 25.6671 32.6171C25.6144 32.7704 25.5929 32.9327 25.6039 33.0945V34.9592H24.9477V31.3386H25.5767V31.8889C25.7124 31.699 25.8978 31.5503 26.1126 31.4592C26.3545 31.3546 26.616 31.3029 26.8794 31.3075C27.0792 31.2969 27.279 31.3266 27.4671 31.3947C27.6552 31.4628 27.8277 31.5681 27.9744 31.7042Z" fill="#889499"/>
<path d="M30.0343 34.7609C29.7519 34.6075 29.5169 34.3796 29.3548 34.1017C29.1944 33.8099 29.1102 33.4821 29.1102 33.149C29.1102 32.8158 29.1944 32.488 29.3548 32.1962C29.516 31.9187 29.7513 31.6917 30.0343 31.5409C30.3371 31.3797 30.6758 31.2981 31.0186 31.3037C31.3225 31.2969 31.6235 31.3636 31.8962 31.4981C32.1489 31.6282 32.3566 31.8314 32.4922 32.0815L31.9952 32.4023C31.8902 32.238 31.7444 32.104 31.5719 32.0134C31.3985 31.9262 31.2069 31.8815 31.0128 31.8831C30.79 31.8807 30.5703 31.9349 30.3741 32.0406C30.1871 32.1446 30.0336 32.2997 29.9314 32.4879C29.8254 32.6952 29.7702 32.9248 29.7702 33.1577C29.7702 33.3906 29.8254 33.6202 29.9314 33.8276C30.033 34.0161 30.1867 34.1714 30.3741 34.2748C30.5699 34.3814 30.7899 34.4357 31.0128 34.4323C31.207 34.4349 31.3989 34.3902 31.5719 34.302C31.7447 34.212 31.8907 34.0778 31.9952 33.9131L32.4922 34.2262C32.3561 34.4758 32.1485 34.679 31.8962 34.8095C31.6238 34.9449 31.3226 35.0117 31.0186 35.004C30.6752 35.0086 30.3362 34.9249 30.0343 34.7609Z" fill="#889499"/>
<path d="M33.6939 34.7609C33.4129 34.6083 33.1802 34.38 33.0222 34.1017C32.863 33.8095 32.7795 33.4819 32.7795 33.1489C32.7795 32.816 32.863 32.4884 33.0222 32.1961C33.1793 31.9181 33.4123 31.6908 33.6939 31.5409C33.9934 31.3836 34.3265 31.3015 34.6647 31.3015C35.0028 31.3015 35.3359 31.3836 35.6354 31.5409C35.9143 31.6932 36.1455 31.92 36.3033 32.1961C36.4613 32.4888 36.544 32.8162 36.544 33.1489C36.544 33.4816 36.4613 33.8091 36.3033 34.1017C36.1448 34.3783 35.9138 34.6062 35.6354 34.7609C35.3363 34.9192 35.003 35.002 34.6647 35.002C34.3263 35.002 33.9931 34.9192 33.6939 34.7609ZM35.2859 34.265C35.4709 34.1586 35.6222 34.0023 35.7228 33.8139C35.8261 33.6072 35.8799 33.3792 35.8799 33.148C35.8799 32.9167 35.8261 32.6887 35.7228 32.482C35.6231 32.2952 35.4731 32.1403 35.2898 32.0348C35.0979 31.9315 34.8835 31.8774 34.6656 31.8774C34.4478 31.8774 34.2333 31.9315 34.0415 32.0348C33.857 32.1401 33.7057 32.295 33.6046 32.482C33.4987 32.6879 33.4435 32.9163 33.4435 33.148C33.4435 33.3796 33.4987 33.608 33.6046 33.8139C33.7056 34.002 33.8568 34.1582 34.0415 34.265C34.2325 34.3709 34.4473 34.4265 34.6656 34.4265C34.884 34.4265 35.0988 34.3709 35.2898 34.265H35.2859Z" fill="#889499"/>
<path d="M40.6443 31.3386V34.9592H40.0231V34.4167C39.8895 34.6041 39.7095 34.7535 39.5008 34.8503C39.2804 34.9539 39.0395 35.0064 38.7961 35.0039C38.5891 35.0154 38.382 34.986 38.1864 34.9173C37.9909 34.8485 37.8108 34.7419 37.6564 34.6033C37.3782 34.3363 37.239 33.9435 37.239 33.425V31.3386H37.8952V33.3472C37.8739 33.635 37.9643 33.9199 38.1476 34.1425C38.242 34.2363 38.3552 34.3088 38.4797 34.3554C38.6042 34.402 38.7372 34.4216 38.8698 34.4128C39.0208 34.4205 39.1717 34.3965 39.3128 34.3423C39.4539 34.288 39.5821 34.2047 39.6891 34.0978C39.9034 33.854 40.0129 33.5354 39.9939 33.2111V31.3386H40.6443Z" fill="#889499"/>
<path d="M44.9194 31.3386L43.3371 34.9592H42.6693L41.087 31.3386H41.7684L43.011 34.2417L44.2787 31.3386H44.9194Z" fill="#889499"/>
<path d="M48.515 33.3666H45.5814C45.5962 33.5176 45.6409 33.6642 45.7129 33.7978C45.7849 33.9313 45.8828 34.0491 46.0008 34.1443C46.2549 34.3423 46.5702 34.4448 46.8919 34.4341C47.087 34.4416 47.2814 34.4064 47.4615 34.3308C47.6416 34.2553 47.803 34.1412 47.9345 33.9966L48.2956 34.4205C48.1299 34.6127 47.9209 34.7626 47.686 34.858C47.3912 34.9698 47.0766 35.0198 46.7617 35.0051C46.4468 34.9904 46.1383 34.9112 45.8552 34.7724C45.5679 34.6237 45.3298 34.3947 45.1698 34.1132C45.0052 33.8218 44.9214 33.4914 44.9272 33.1566C44.9221 32.8252 45.003 32.4983 45.1621 32.2077C45.3118 31.9311 45.5366 31.7026 45.8105 31.5485C46.0941 31.3885 46.415 31.3066 46.7405 31.3113C47.0642 31.3059 47.3834 31.3878 47.6646 31.5485C47.9346 31.7032 48.1549 31.9319 48.2995 32.2077C48.457 32.507 48.5358 32.8416 48.5286 33.1799C48.5363 33.2188 48.5227 33.2849 48.515 33.3666ZM45.9542 32.1455C45.7414 32.3408 45.6085 32.6082 45.5814 32.896H47.8995C47.8725 32.6092 47.7404 32.3425 47.5287 32.1474C47.3086 31.961 47.0297 31.8587 46.7415 31.8587C46.4532 31.8587 46.1743 31.961 45.9542 32.1474V32.1455Z" fill="#889499"/>
<path d="M50.3963 31.4688C50.6505 31.3519 50.9282 31.2953 51.2078 31.3035V31.9393C51.158 31.9368 51.1081 31.9368 51.0583 31.9393C50.9048 31.9308 50.7512 31.9547 50.6074 32.0093C50.4636 32.0638 50.3328 32.148 50.2235 32.2563C50.008 32.5062 49.8992 32.8309 49.9206 33.1605V34.9649H49.2644V31.3385H49.8954V31.9471C50.0074 31.7385 50.1828 31.571 50.3963 31.4688Z" fill="#889499"/>
<path d="M44.7078 27.8249V28.4549H38.1457V27.963L42.1839 23.9458C42.6094 23.5505 42.971 23.0913 43.2556 22.5847C43.438 22.2228 43.5337 21.8234 43.5351 21.418C43.5483 21.1474 43.4991 20.8774 43.3914 20.6289C43.2837 20.3804 43.1203 20.1601 42.9139 19.9849C42.5003 19.6369 41.9024 19.4658 41.12 19.4658C40.5819 19.4541 40.0466 19.5465 39.5435 19.738C39.0952 19.9196 38.696 20.2048 38.3786 20.5702L37.8875 20.1347C38.2646 19.7044 38.7393 19.371 39.2717 19.1624C39.8778 18.926 40.524 18.8098 41.1743 18.8202C42.1114 18.8202 42.8569 19.0477 43.4109 19.5027C43.6832 19.7244 43.9003 20.0066 44.0449 20.3269C44.1894 20.6472 44.2575 20.9968 44.2438 21.348C44.2439 21.8344 44.1316 22.3143 43.9157 22.7499C43.5931 23.3314 43.1788 23.8567 42.6887 24.3055L39.1688 27.8055L44.7078 27.8249Z" fill="#326D32"/>
<path d="M47.62 27.9281C47.0276 27.5028 46.5684 26.9174 46.2959 26.2403C45.9664 25.4257 45.8065 24.5523 45.8261 23.6737C45.8065 22.7944 45.9664 21.9203 46.2959 21.1051C46.5689 20.4283 47.028 19.843 47.62 19.4173C48.1937 19.0302 48.8697 18.8235 49.5614 18.8235C50.2531 18.8235 50.9291 19.0302 51.5029 19.4173C52.0948 19.843 52.554 20.4283 52.8269 21.1051C53.1564 21.9203 53.3163 22.7944 53.2968 23.6737C53.3163 24.5523 53.1564 25.4257 52.8269 26.2403C52.5544 26.9174 52.0952 27.5028 51.5029 27.9281C50.9291 28.3152 50.2531 28.5219 49.5614 28.5219C48.8697 28.5219 48.1937 28.3152 47.62 27.9281ZM51.1534 27.3817C51.6408 27.0111 52.012 26.5084 52.2231 25.9331C52.4957 25.2118 52.6275 24.4448 52.6114 23.6737C52.6274 22.9019 52.4956 22.1343 52.2231 21.4123C52.012 20.837 51.6408 20.3343 51.1534 19.9637C50.6863 19.6395 50.1316 19.4659 49.5634 19.4659C48.9951 19.4659 48.4404 19.6395 47.9733 19.9637C47.4859 20.3343 47.1147 20.837 46.9036 21.4123C46.6311 22.1343 46.4993 22.9019 46.5153 23.6737C46.4992 24.4448 46.631 25.2118 46.9036 25.9331C47.1147 26.5084 47.4859 27.0111 47.9733 27.3817C48.4399 27.7072 48.9948 27.8816 49.5634 27.8816C50.1319 27.8816 50.6869 27.7072 51.1534 27.3817Z" fill="#326D32"/>
<path d="M61.0218 27.8249V28.4549H54.4616V27.963L58.4979 23.9458C58.9235 23.5505 59.285 23.0913 59.5696 22.5847C59.752 22.2228 59.8477 21.8234 59.8492 21.418C59.8623 21.1474 59.8132 20.8774 59.7054 20.6289C59.5977 20.3804 59.4343 20.1601 59.2279 19.9849C58.8144 19.6369 58.2164 19.4658 57.434 19.4658C56.8966 19.4541 56.3619 19.5465 55.8595 19.738C55.4115 19.9203 55.0126 20.2054 54.6946 20.5702L54.2034 20.1347C54.5806 19.7044 55.0553 19.371 55.5877 19.1624C56.1938 18.926 56.84 18.8098 57.4903 18.8202C58.4287 18.8202 59.1748 19.0477 59.7288 19.5027C60.0006 19.7248 60.2171 20.0071 60.3613 20.3273C60.5055 20.6476 60.5734 20.997 60.5597 21.348C60.5606 21.8361 60.449 22.3179 60.2336 22.7558C59.9102 23.3372 59.4952 23.8625 59.0046 24.3113L55.4867 27.8113L61.0218 27.8249Z" fill="#326D32"/>
<path d="M67.5082 23.8293C67.7812 24.0717 67.9969 24.372 68.1397 24.7083C68.2824 25.0447 68.3485 25.4086 68.3333 25.7737C68.3406 26.2766 68.206 26.7713 67.945 27.2009C67.6709 27.6312 67.2748 27.9698 66.8074 28.1732C66.2337 28.424 65.612 28.5455 64.9863 28.529C64.3201 28.5332 63.6588 28.4152 63.0351 28.1809C62.4911 27.9925 62.0031 27.6702 61.6159 27.2437L61.9712 26.7109C62.3213 27.0867 62.7531 27.3768 63.2331 27.5587C63.7886 27.7812 64.3822 27.8928 64.9804 27.8873C65.8256 27.8873 66.4728 27.6981 66.9219 27.3195C67.1388 27.1224 67.312 26.8817 67.43 26.6132C67.5481 26.3447 67.6084 26.0543 67.6071 25.761C67.6058 25.4676 67.543 25.1777 67.4226 24.9103C67.3022 24.6428 67.127 24.4037 66.9083 24.2084C66.4462 23.8351 65.7506 23.6484 64.8212 23.6484H64.2213V23.139L67.0462 19.5184H61.977V18.8904H67.9664V19.3823L65.1008 23.0573C66.1557 23.0845 66.9581 23.3419 67.5082 23.8293Z" fill="#326D32"/>
<path d="M9.20831 18.8904L4.95265 28.4551H4.25567L0 18.8904H0.762991L4.62454 27.5529L8.48415 18.8904H9.20831Z" fill="black"/>
<path d="M10.4081 18.8904H11.1032V27.8348H16.6014V28.4629H10.4081V18.8904Z" fill="black"/>
<path d="M18.0555 18.8904H21.8336C22.7512 18.8733 23.6585 19.0852 24.474 19.5067C25.2191 19.8939 25.8402 20.4836 26.2659 21.2081C26.6873 21.9613 26.9086 22.8103 26.9086 23.6737C26.9086 24.5371 26.6873 25.386 26.2659 26.1392C25.8388 26.8627 25.2181 27.452 24.474 27.8406C23.6584 28.2616 22.751 28.4728 21.8336 28.4551H18.0555V18.8904ZM21.7792 27.8348C22.587 27.8508 23.3865 27.67 24.109 27.3079C24.758 26.9798 25.2977 26.4698 25.6622 25.8398C26.0202 25.1769 26.2077 24.4351 26.2077 23.6815C26.2077 22.9278 26.0202 22.186 25.6622 21.5231C25.2978 20.8926 24.7581 20.3818 24.109 20.0531C23.3863 19.6917 22.5868 19.5115 21.7792 19.5281H18.7428V27.8348H21.7792Z" fill="black"/>
<path d="M36.21 24.329C36.5827 24.7757 36.7752 25.3458 36.7498 25.9273C36.7676 26.2885 36.696 26.6485 36.5412 26.9753C36.3863 27.302 36.1532 27.5853 35.8625 27.7998C35.2697 28.2354 34.3922 28.4538 33.2299 28.4551H28.9742V18.8904H32.9562C33.9916 18.8904 34.7986 19.1023 35.3772 19.5262C35.6607 19.7318 35.8886 20.0051 36.0402 20.3212C36.1917 20.6373 36.2621 20.9863 36.245 21.3365C36.2612 21.8322 36.1092 22.3188 35.814 22.717C35.5171 23.0985 35.1105 23.3795 34.6491 23.522C35.2459 23.6053 35.7966 23.89 36.21 24.329ZM29.6693 19.4932V23.3043H32.929C33.7651 23.3043 34.409 23.1429 34.8607 22.8201C35.0714 22.6482 35.2412 22.4314 35.3578 22.1855C35.4744 21.9397 35.5349 21.6709 35.5349 21.3987C35.5349 21.1265 35.4744 20.8578 35.3578 20.6119C35.2412 20.366 35.0714 20.1493 34.8607 19.9773C34.4103 19.6545 33.7664 19.4932 32.929 19.4932H29.6693ZM35.3344 27.3682C35.812 27.0454 36.0508 26.547 36.0508 25.8729C36.0508 25.1988 35.812 24.7023 35.3344 24.3834C34.8594 24.0645 34.1573 23.9051 33.228 23.9051H29.6693V27.8543H33.2299C34.1579 27.8543 34.8594 27.6922 35.3344 27.3682Z" fill="black"/>
<path d="M21.0026 15.9095L21.9734 13.7415H22.6703L23.6411 15.9095H22.8645L22.2995 14.6417L21.7346 15.9095H21.0026Z" fill="#326D32"/>
<path d="M21.0026 18.0833L21.9734 15.9153H22.6703L23.6411 18.0833H22.8645L22.2995 16.8175L21.7307 18.0833H21.0026Z" fill="#326D32"/>
<path d="M23.6295 18.0833L24.6002 15.9153H25.2952L26.2659 18.0833H25.4894L24.9244 16.8175L24.3575 18.0833H23.6295Z" fill="#326D32"/>
<path d="M23.6295 15.9095L24.6002 13.7415H25.2952L26.2659 15.9095H25.4894L24.9244 14.6417L24.3614 15.9095H23.6295Z" fill="#326D32"/>
<path d="M23.6295 13.7413L24.6002 11.5713H25.2952L26.2659 13.7413H25.4894L24.9244 12.4735L24.3614 13.7413H23.6295Z" fill="#326D32"/>
<path d="M26.2543 15.9095L27.225 13.7415H27.92L28.8908 15.9095H28.1142L27.5512 14.6417L26.9862 15.9095H26.2543Z" fill="#326D32"/>
<path d="M26.2543 18.0833L27.225 15.9153H27.92L28.8908 18.0833H28.1142L27.5512 16.8175L26.9862 18.0833H26.2543Z" fill="#326D32"/>
<path d="M23.6275 13.7394L17.5099 0H16.8149L8.76758 18.0833H9.52475L15.1802 5.39194L15.9005 7.01167H16.512L17.1799 5.50861L17.8613 7.01167H18.471L19.1912 5.39L22.9091 13.7394H23.6275ZM18.1564 6.05306L17.4847 4.55H16.877L16.2072 6.05306L15.5471 4.57139L17.1818 0.902222L18.8165 4.56944L18.1564 6.05306Z" fill="#889499"/>
</svg>
